<?xml version="1.0" encoding="utf-8"?>
<!-- Generator: Adobe Illustrator 21.0.2, SVG Export Plug-In . SVG Version: 6.00 Build 0)  -->
<svg version="1.1" id="圖層_1" xmlns="http://www.w3.org/2000/svg" xmlns:xlink="http://www.w3.org/1999/xlink" x="0px" y="0px"
	 viewBox="0 0 141 100" style="enable-background:new 0 0 141 100;" xml:space="preserve">
<style type="text/css">
	.st0{fill:#FFFFFF;}
</style>
<g>
	<g>
		<path class="st0" d="M48.5,70.7v2c0,0,0,0,0,0.1c0,0,0,0-0.1,0c0,0-0.1,0-0.1,0c-0.1,0-0.1,0-0.2,0c-0.1,0-0.1,0-0.2,0
			c0,0-0.1,0-0.1,0c0,0-0.1,0-0.1,0c0,0,0,0,0-0.1v-2l-1.6-3.1c0-0.1-0.1-0.1-0.1-0.2c0,0,0-0.1,0-0.1c0,0,0.1,0,0.1,0
			c0.1,0,0.1,0,0.2,0c0.1,0,0.2,0,0.2,0c0.1,0,0.1,0,0.1,0c0,0,0.1,0,0.1,0c0,0,0,0,0,0.1l0.8,1.6c0.1,0.1,0.1,0.3,0.2,0.5
			c0.1,0.2,0.1,0.3,0.2,0.5h0c0.1-0.2,0.1-0.3,0.2-0.5c0.1-0.2,0.1-0.3,0.2-0.5l0.8-1.6c0,0,0-0.1,0-0.1c0,0,0,0,0.1,0
			c0,0,0.1,0,0.1,0c0.1,0,0.1,0,0.2,0c0.1,0,0.2,0,0.2,0c0.1,0,0.1,0,0.1,0c0,0,0,0,0,0.1c0,0,0,0.1-0.1,0.1L48.5,70.7z"/>
		<path class="st0" d="M58.2,72.5c0,0.1,0,0.1,0,0.1c0,0,0,0.1,0,0.1c0,0-0.1,0-0.1,0c-0.1,0-0.1,0-0.2,0c-0.1,0-0.2,0-0.2,0
			c-0.1,0-0.1,0-0.1,0c0,0,0,0-0.1,0c0,0,0,0,0-0.1l-0.5-1.3h-2.4l-0.5,1.3c0,0,0,0,0,0.1c0,0,0,0-0.1,0c0,0-0.1,0-0.1,0
			c-0.1,0-0.1,0-0.2,0c-0.1,0-0.2,0-0.2,0c-0.1,0-0.1,0-0.1,0c0,0,0,0,0-0.1c0,0,0-0.1,0-0.1l1.9-5c0,0,0-0.1,0-0.1c0,0,0,0,0.1,0
			c0,0,0.1,0,0.1,0c0.1,0,0.1,0,0.2,0c0.1,0,0.2,0,0.2,0c0.1,0,0.1,0,0.1,0c0,0,0.1,0,0.1,0c0,0,0,0,0,0.1L58.2,72.5z M55.7,68.1
			L55.7,68.1l-1,2.7h2L55.7,68.1z"/>
		<path class="st0" d="M67,72.5c0,0.1,0,0.1,0,0.1c0,0,0,0.1-0.1,0.1c0,0-0.1,0-0.1,0.1c0,0-0.1,0-0.1,0h-0.2c-0.1,0-0.1,0-0.2,0
			c-0.1,0-0.1,0-0.2-0.1c-0.1,0-0.1-0.1-0.2-0.2c-0.1-0.1-0.1-0.2-0.2-0.3L64,69.2c-0.1-0.2-0.2-0.3-0.3-0.5
			c-0.1-0.2-0.2-0.3-0.3-0.5h0c0,0.2,0,0.4,0,0.6c0,0.2,0,0.4,0,0.6v3.3c0,0,0,0,0,0.1c0,0,0,0-0.1,0c0,0-0.1,0-0.1,0
			c0,0-0.1,0-0.2,0c-0.1,0-0.1,0-0.2,0c0,0-0.1,0-0.1,0c0,0,0,0-0.1,0c0,0,0,0,0-0.1v-5c0-0.1,0-0.2,0.1-0.2c0.1,0,0.1-0.1,0.2-0.1
			h0.4c0.1,0,0.2,0,0.2,0c0.1,0,0.1,0,0.2,0.1c0,0,0.1,0.1,0.1,0.1c0,0.1,0.1,0.1,0.1,0.2l1.3,2.4c0.1,0.1,0.2,0.3,0.2,0.4
			c0.1,0.1,0.1,0.3,0.2,0.4c0.1,0.1,0.1,0.3,0.2,0.4c0.1,0.1,0.1,0.3,0.2,0.4h0c0-0.2,0-0.5,0-0.7c0-0.2,0-0.5,0-0.7v-2.9
			c0,0,0,0,0-0.1c0,0,0,0,0.1,0c0,0,0.1,0,0.1,0c0,0,0.1,0,0.2,0c0.1,0,0.1,0,0.2,0c0,0,0.1,0,0.1,0c0,0,0,0,0.1,0c0,0,0,0,0,0.1
			V72.5z"/>
		<path class="st0" d="M76.3,68.1c0,0.1,0,0.1,0,0.1c0,0,0,0.1,0,0.1c0,0,0,0,0,0.1c0,0,0,0-0.1,0c0,0-0.1,0-0.2-0.1
			c-0.1-0.1-0.2-0.1-0.3-0.2c-0.1-0.1-0.3-0.1-0.5-0.2c-0.2-0.1-0.4-0.1-0.7-0.1c-0.3,0-0.6,0.1-0.8,0.2c-0.2,0.1-0.5,0.3-0.6,0.5
			c-0.2,0.2-0.3,0.4-0.4,0.7c-0.1,0.3-0.1,0.6-0.1,0.9c0,0.3,0.1,0.7,0.2,0.9c0.1,0.3,0.2,0.5,0.4,0.7c0.2,0.2,0.4,0.3,0.6,0.4
			c0.2,0.1,0.5,0.1,0.8,0.1c0.2,0,0.4,0,0.5-0.1c0.2,0,0.3-0.1,0.5-0.2v-1.6h-1.3c-0.1,0-0.1,0-0.1-0.1c0,0,0-0.1,0-0.2
			c0-0.1,0-0.1,0-0.1c0,0,0-0.1,0-0.1c0,0,0,0,0-0.1c0,0,0,0,0.1,0H76c0,0,0.1,0,0.1,0c0,0,0.1,0,0.1,0.1c0,0,0,0.1,0.1,0.1
			c0,0,0,0.1,0,0.1v2.1c0,0.1,0,0.1,0,0.2c0,0.1-0.1,0.1-0.2,0.1c-0.1,0-0.2,0.1-0.3,0.1c-0.1,0-0.3,0.1-0.4,0.1
			c-0.1,0-0.3,0.1-0.4,0.1c-0.1,0-0.3,0-0.4,0c-0.4,0-0.8-0.1-1.2-0.2c-0.3-0.1-0.6-0.3-0.9-0.6c-0.2-0.2-0.4-0.5-0.5-0.9
			c-0.1-0.3-0.2-0.7-0.2-1.1c0-0.4,0.1-0.8,0.2-1.2c0.1-0.3,0.3-0.6,0.6-0.9c0.2-0.2,0.5-0.4,0.9-0.6c0.3-0.1,0.7-0.2,1.1-0.2
			c0.2,0,0.4,0,0.6,0.1c0.2,0,0.4,0.1,0.5,0.1c0.1,0,0.3,0.1,0.4,0.2c0.1,0.1,0.2,0.1,0.2,0.1c0,0,0.1,0.1,0.1,0.1
			C76.3,68,76.3,68,76.3,68.1z"/>
		<path class="st0" d="M85.6,70.8c0,0.3-0.1,0.6-0.2,0.9c-0.1,0.3-0.2,0.5-0.4,0.7c-0.2,0.2-0.4,0.3-0.7,0.4
			c-0.3,0.1-0.6,0.1-0.9,0.1c-0.3,0-0.6,0-0.9-0.1c-0.3-0.1-0.5-0.2-0.7-0.4c-0.2-0.2-0.3-0.4-0.4-0.6c-0.1-0.3-0.1-0.5-0.1-0.9
			v-3.4c0,0,0,0,0-0.1c0,0,0,0,0.1,0c0,0,0.1,0,0.1,0c0,0,0.1,0,0.2,0c0.1,0,0.1,0,0.2,0c0,0,0.1,0,0.1,0c0,0,0,0,0.1,0
			c0,0,0,0,0,0.1v3.3c0,0.2,0,0.5,0.1,0.7c0.1,0.2,0.2,0.3,0.3,0.5c0.1,0.1,0.3,0.2,0.4,0.3c0.2,0.1,0.4,0.1,0.6,0.1
			c0.2,0,0.4,0,0.6-0.1c0.2-0.1,0.3-0.2,0.4-0.3c0.1-0.1,0.2-0.3,0.3-0.5c0.1-0.2,0.1-0.4,0.1-0.6v-3.3c0,0,0,0,0-0.1c0,0,0,0,0.1,0
			c0,0,0.1,0,0.1,0c0,0,0.1,0,0.2,0c0.1,0,0.1,0,0.2,0c0,0,0.1,0,0.1,0c0,0,0,0,0.1,0c0,0,0,0,0,0.1V70.8z"/>
		<path class="st0" d="M95.4,70c0,0.4-0.1,0.8-0.2,1.2c-0.1,0.3-0.3,0.7-0.5,0.9c-0.2,0.2-0.5,0.4-0.8,0.6c-0.3,0.1-0.7,0.2-1.1,0.2
			c-0.4,0-0.8-0.1-1.1-0.2c-0.3-0.1-0.6-0.3-0.8-0.5c-0.2-0.2-0.4-0.5-0.5-0.9c-0.1-0.3-0.1-0.7-0.1-1.2c0-0.4,0.1-0.8,0.2-1.2
			c0.1-0.3,0.3-0.6,0.5-0.9c0.2-0.2,0.5-0.4,0.8-0.6c0.3-0.1,0.7-0.2,1.1-0.2c0.4,0,0.8,0.1,1.1,0.2c0.3,0.1,0.6,0.3,0.8,0.5
			c0.2,0.2,0.4,0.5,0.5,0.9C95.3,69.2,95.4,69.6,95.4,70z M94.6,70.1c0-0.3,0-0.6-0.1-0.9c-0.1-0.3-0.2-0.5-0.3-0.7
			c-0.1-0.2-0.3-0.3-0.5-0.5c-0.2-0.1-0.5-0.2-0.8-0.2c-0.3,0-0.6,0.1-0.8,0.2c-0.2,0.1-0.4,0.3-0.5,0.5c-0.1,0.2-0.2,0.4-0.3,0.7
			c-0.1,0.3-0.1,0.5-0.1,0.8c0,0.3,0,0.6,0.1,0.9c0.1,0.3,0.1,0.5,0.3,0.7c0.1,0.2,0.3,0.3,0.5,0.5c0.2,0.1,0.5,0.2,0.8,0.2
			c0.3,0,0.6-0.1,0.8-0.2c0.2-0.1,0.4-0.3,0.5-0.5c0.1-0.2,0.2-0.4,0.3-0.7C94.5,70.6,94.6,70.4,94.6,70.1z"/>
		<path class="st0" d="M38.7,81.1c0,0.2,0,0.4-0.1,0.6c0,0.2-0.1,0.3-0.2,0.5c-0.1,0.1-0.2,0.2-0.4,0.3c-0.2,0.1-0.4,0.1-0.6,0.1
			c-0.1,0-0.2,0-0.2,0c-0.1,0-0.2,0-0.2,0c-0.1,0-0.1,0-0.2-0.1c-0.1,0-0.1,0-0.1-0.1c0,0,0,0,0,0c0,0,0,0,0-0.1c0,0,0-0.1,0-0.1
			c0,0,0-0.1,0-0.1c0-0.1,0-0.1,0-0.2c0,0,0-0.1,0-0.1c0,0,0,0,0,0c0,0,0,0,0.1,0c0,0,0.1,0,0.1,0c0,0,0.1,0,0.1,0.1
			c0.1,0,0.1,0,0.2,0.1c0.1,0,0.1,0,0.2,0c0.1,0,0.2,0,0.3,0c0.1,0,0.1-0.1,0.2-0.1c0-0.1,0.1-0.2,0.1-0.3c0-0.1,0-0.3,0-0.4v-3.9
			c0,0,0,0,0-0.1c0,0,0,0,0.1,0c0,0,0.1,0,0.1,0c0,0,0.1,0,0.2,0c0.1,0,0.1,0,0.2,0c0,0,0.1,0,0.1,0c0,0,0,0,0.1,0c0,0,0,0,0,0.1
			V81.1z"/>
		<path class="st0" d="M48,80.5c0,0.3-0.1,0.6-0.2,0.9c-0.1,0.3-0.2,0.5-0.4,0.7c-0.2,0.2-0.4,0.3-0.7,0.4c-0.3,0.1-0.6,0.1-0.9,0.1
			c-0.3,0-0.6,0-0.9-0.1c-0.3-0.1-0.5-0.2-0.7-0.4c-0.2-0.2-0.3-0.4-0.4-0.6c-0.1-0.3-0.1-0.5-0.1-0.9v-3.4c0,0,0,0,0-0.1
			c0,0,0,0,0.1,0c0,0,0.1,0,0.1,0c0,0,0.1,0,0.2,0c0.1,0,0.1,0,0.2,0c0,0,0.1,0,0.1,0c0,0,0,0,0.1,0c0,0,0,0,0,0.1v3.3
			c0,0.2,0,0.5,0.1,0.7c0.1,0.2,0.2,0.3,0.3,0.5c0.1,0.1,0.3,0.2,0.4,0.3c0.2,0.1,0.4,0.1,0.6,0.1c0.2,0,0.4,0,0.6-0.1
			c0.2-0.1,0.3-0.2,0.4-0.3c0.1-0.1,0.2-0.3,0.3-0.5c0.1-0.2,0.1-0.4,0.1-0.6v-3.3c0,0,0,0,0-0.1c0,0,0,0,0.1,0c0,0,0.1,0,0.1,0
			c0,0,0.1,0,0.2,0c0.1,0,0.1,0,0.2,0c0,0,0.1,0,0.1,0c0,0,0,0,0.1,0c0,0,0,0,0,0.1V80.5z"/>
		<path class="st0" d="M53.8,82.4C53.8,82.4,53.8,82.4,53.8,82.4C53.8,82.4,53.8,82.4,53.8,82.4c-0.1,0.1-0.1,0.1-0.2,0.1
			c0,0-0.1,0-0.2,0c-0.1,0-0.1,0-0.2,0c-0.1,0-0.1,0-0.1,0c0,0,0,0-0.1,0c0,0,0,0,0-0.1v-5.2c0,0,0,0,0-0.1c0,0,0,0,0.1,0
			c0,0,0.1,0,0.1,0c0,0,0.1,0,0.2,0c0.1,0,0.1,0,0.2,0c0,0,0.1,0,0.1,0c0,0,0,0,0.1,0c0,0,0,0,0,0.1V82.4z"/>
		<path class="st0" d="M62.7,81.7c0,0,0,0.1,0,0.1c0,0,0,0.1,0,0.1c0,0,0,0,0,0.1c0,0,0,0-0.1,0.1c0,0-0.1,0.1-0.2,0.1
			c-0.1,0.1-0.2,0.1-0.3,0.2c-0.1,0.1-0.3,0.1-0.5,0.1c-0.2,0-0.4,0.1-0.6,0.1c-0.4,0-0.7-0.1-1-0.2c-0.3-0.1-0.5-0.3-0.8-0.5
			c-0.2-0.2-0.4-0.5-0.5-0.8c-0.1-0.3-0.2-0.7-0.2-1.2c0-0.4,0.1-0.8,0.2-1.2c0.1-0.3,0.3-0.6,0.5-0.9c0.2-0.2,0.5-0.4,0.8-0.6
			s0.6-0.2,1-0.2c0.2,0,0.3,0,0.5,0c0.2,0,0.3,0.1,0.4,0.1c0.1,0,0.2,0.1,0.3,0.2c0.1,0.1,0.2,0.1,0.2,0.1c0,0,0.1,0.1,0.1,0.1
			c0,0,0,0,0,0.1c0,0,0,0.1,0,0.1c0,0,0,0.1,0,0.1c0,0.1,0,0.1,0,0.1c0,0,0,0.1,0,0.1c0,0,0,0,0,0.1c0,0,0,0-0.1,0
			c0,0-0.1,0-0.2-0.1c-0.1-0.1-0.2-0.1-0.3-0.2c-0.1-0.1-0.3-0.1-0.4-0.2c-0.2-0.1-0.4-0.1-0.6-0.1c-0.3,0-0.5,0-0.7,0.1
			c-0.2,0.1-0.4,0.2-0.5,0.4c-0.1,0.2-0.3,0.4-0.3,0.7c-0.1,0.3-0.1,0.6-0.1,0.9c0,0.3,0,0.6,0.1,0.9c0.1,0.3,0.2,0.5,0.3,0.7
			c0.1,0.2,0.3,0.3,0.5,0.4c0.2,0.1,0.4,0.1,0.7,0.1c0.2,0,0.4,0,0.6-0.1c0.2-0.1,0.3-0.1,0.4-0.2c0.1-0.1,0.2-0.1,0.3-0.2
			c0.1-0.1,0.1-0.1,0.2-0.1c0,0,0,0,0.1,0c0,0,0,0,0,0c0,0,0,0.1,0,0.1C62.7,81.6,62.7,81.6,62.7,81.7z"/>
		<path class="st0" d="M70.4,82.2c0,0,0,0.1,0,0.1c0,0,0,0.1,0,0.1c0,0,0,0-0.1,0.1c0,0,0,0-0.1,0h-2.7c-0.1,0-0.1,0-0.2-0.1
			c-0.1,0-0.1-0.1-0.1-0.2v-4.8c0-0.1,0-0.2,0.1-0.2c0.1,0,0.1-0.1,0.2-0.1h2.7c0,0,0,0,0.1,0c0,0,0,0,0,0.1c0,0,0,0.1,0,0.1
			c0,0,0,0.1,0,0.1c0,0.1,0,0.1,0,0.1c0,0,0,0.1,0,0.1c0,0,0,0,0,0.1c0,0,0,0-0.1,0H68v1.7h1.9c0,0,0,0,0.1,0c0,0,0,0,0,0.1
			c0,0,0,0.1,0,0.1c0,0,0,0.1,0,0.1c0,0.1,0,0.1,0,0.1c0,0,0,0.1,0,0.1c0,0,0,0,0,0c0,0,0,0-0.1,0H68v1.9h2.2c0,0,0,0,0.1,0
			c0,0,0,0,0.1,0.1c0,0,0,0.1,0,0.1C70.4,82.1,70.4,82.1,70.4,82.2z"/>
		<path class="st0" d="M75,81c0-0.2,0-0.3,0.1-0.4c0-0.1,0.1-0.3,0.2-0.4c0.1-0.1,0.2-0.3,0.4-0.4c0.2-0.1,0.3-0.2,0.5-0.4
			c-0.1-0.2-0.2-0.3-0.3-0.4c-0.1-0.1-0.2-0.2-0.2-0.3c-0.1-0.1-0.1-0.2-0.1-0.3c0-0.1,0-0.2,0-0.3c0-0.2,0-0.3,0.1-0.5
			c0.1-0.2,0.2-0.3,0.3-0.4c0.1-0.1,0.3-0.2,0.5-0.3c0.2-0.1,0.5-0.1,0.8-0.1c0.3,0,0.5,0,0.7,0.1c0.2,0.1,0.3,0.1,0.5,0.2
			c0.1,0.1,0.2,0.2,0.3,0.4c0.1,0.1,0.1,0.3,0.1,0.5c0,0.2,0,0.3-0.1,0.5c-0.1,0.1-0.1,0.3-0.3,0.4c-0.1,0.1-0.3,0.3-0.5,0.4
			c-0.2,0.1-0.4,0.3-0.7,0.4c0.1,0.1,0.2,0.2,0.3,0.4c0.1,0.1,0.2,0.2,0.4,0.4c0.1,0.1,0.3,0.2,0.4,0.4c0.1,0.1,0.3,0.2,0.4,0.3
			c0.1-0.1,0.1-0.2,0.2-0.3c0-0.1,0.1-0.2,0.1-0.3c0-0.1,0.1-0.2,0.1-0.3c0-0.1,0-0.2,0-0.3v-0.2c0,0,0-0.1,0-0.1c0,0,0,0,0.1,0
			c0,0,0.1,0,0.1,0c0,0,0.1,0,0.2,0c0.1,0,0.1,0,0.2,0c0,0,0.1,0,0.1,0c0,0,0.1,0,0.1,0c0,0,0,0.1,0,0.1v0.1c0,0.2,0,0.3,0,0.5
			c0,0.2-0.1,0.3-0.1,0.4c0,0.1-0.1,0.3-0.2,0.4c-0.1,0.1-0.2,0.3-0.2,0.4c0.1,0.1,0.2,0.2,0.3,0.3c0.1,0.1,0.2,0.1,0.2,0.2
			c0.1,0,0.1,0.1,0.2,0.1c0,0,0.1,0,0.1,0s0.1,0,0.1,0c0,0,0,0,0.1,0c0,0,0,0,0,0.1c0,0,0,0.1,0,0.2c0,0.1,0,0.1,0,0.2
			c0,0,0,0.1,0,0.1c0,0,0,0,0,0.1c0,0-0.1,0-0.1,0c0,0-0.1,0-0.2,0c-0.1,0-0.1,0-0.2,0c-0.1,0-0.2-0.1-0.2-0.1
			c-0.1,0-0.2-0.1-0.3-0.2c-0.1-0.1-0.3-0.2-0.4-0.3c-0.1,0.1-0.3,0.2-0.4,0.3c-0.1,0.1-0.3,0.2-0.4,0.2c-0.2,0.1-0.3,0.1-0.5,0.1
			c-0.2,0-0.3,0-0.5,0c-0.2,0-0.4,0-0.5,0c-0.2,0-0.3-0.1-0.5-0.1c-0.1-0.1-0.3-0.1-0.4-0.2c-0.1-0.1-0.2-0.2-0.3-0.3
			c-0.1-0.1-0.1-0.2-0.2-0.4C75,81.3,75,81.2,75,81z M75.7,81c0,0.1,0,0.3,0.1,0.4c0.1,0.1,0.1,0.2,0.2,0.3c0.1,0.1,0.2,0.2,0.4,0.2
			c0.1,0,0.3,0.1,0.5,0.1c0.1,0,0.2,0,0.3,0c0.1,0,0.2-0.1,0.3-0.1c0.1,0,0.2-0.1,0.3-0.1c0.1-0.1,0.2-0.1,0.3-0.2
			c-0.2-0.1-0.3-0.3-0.5-0.4c-0.2-0.1-0.3-0.3-0.4-0.4c-0.1-0.1-0.3-0.3-0.4-0.4c-0.1-0.1-0.2-0.3-0.4-0.4c-0.1,0.1-0.3,0.2-0.4,0.3
			c-0.1,0.1-0.2,0.2-0.2,0.3c-0.1,0.1-0.1,0.2-0.1,0.3C75.7,80.8,75.7,80.9,75.7,81z M76.2,78.1c0,0.1,0,0.2,0,0.2
			c0,0.1,0.1,0.2,0.1,0.2c0,0.1,0.1,0.2,0.2,0.3c0.1,0.1,0.1,0.2,0.2,0.3c0.2-0.1,0.4-0.2,0.5-0.3c0.1-0.1,0.3-0.2,0.3-0.3
			c0.1-0.1,0.2-0.2,0.2-0.3c0-0.1,0.1-0.2,0.1-0.3c0-0.1,0-0.2,0-0.2c0-0.1-0.1-0.1-0.1-0.2c-0.1-0.1-0.2-0.1-0.3-0.1
			c-0.1,0-0.2-0.1-0.4-0.1c-0.2,0-0.3,0-0.4,0.1c-0.1,0-0.2,0.1-0.3,0.2c-0.1,0.1-0.1,0.1-0.2,0.2C76.3,77.9,76.2,78,76.2,78.1z"/>
		<path class="st0" d="M88.5,77.4c0,0.1,0,0.1,0,0.1c0,0,0,0.1,0,0.1c0,0,0,0,0,0c0,0,0,0-0.1,0h-1.6v4.7c0,0,0,0,0,0.1
			c0,0,0,0-0.1,0c0,0-0.1,0-0.1,0c0,0-0.1,0-0.2,0c-0.1,0-0.1,0-0.2,0c-0.1,0-0.1,0-0.1,0c0,0,0,0-0.1,0c0,0,0,0,0-0.1v-4.7h-1.6
			c0,0,0,0-0.1,0c0,0,0,0,0,0c0,0,0-0.1,0-0.1c0,0,0-0.1,0-0.1c0-0.1,0-0.1,0-0.1c0,0,0-0.1,0-0.1c0,0,0,0,0-0.1c0,0,0,0,0.1,0h3.9
			c0,0,0,0,0.1,0c0,0,0,0,0,0.1c0,0,0,0.1,0,0.1C88.5,77.3,88.5,77.3,88.5,77.4z"/>
		<path class="st0" d="M96,82.2c0,0,0,0.1,0,0.1c0,0,0,0.1,0,0.1c0,0,0,0,0,0.1c0,0,0,0-0.1,0h-2.7c-0.1,0-0.1,0-0.2-0.1
			c-0.1,0-0.1-0.1-0.1-0.2v-4.8c0-0.1,0-0.2,0.1-0.2c0.1,0,0.1-0.1,0.2-0.1h2.7c0,0,0,0,0.1,0c0,0,0,0,0,0.1c0,0,0,0.1,0,0.1
			c0,0,0,0.1,0,0.1c0,0.1,0,0.1,0,0.1c0,0,0,0.1,0,0.1c0,0,0,0,0,0.1c0,0,0,0-0.1,0h-2.2v1.7h1.9c0,0,0,0,0.1,0c0,0,0,0,0,0.1
			c0,0,0,0.1,0,0.1c0,0,0,0.1,0,0.1c0,0.1,0,0.1,0,0.1c0,0,0,0.1,0,0.1c0,0,0,0,0,0c0,0,0,0-0.1,0h-1.9v1.9h2.2c0,0,0,0,0.1,0
			c0,0,0,0,0,0.1c0,0,0,0.1,0,0.1C96,82.1,96,82.1,96,82.2z"/>
		<path class="st0" d="M105,82.2c0,0.1,0,0.1,0,0.1c0,0,0,0.1,0,0.1c0,0-0.1,0-0.1,0c-0.1,0-0.1,0-0.2,0c-0.1,0-0.2,0-0.2,0
			c-0.1,0-0.1,0-0.1,0c0,0,0,0-0.1,0c0,0,0,0,0-0.1l-0.5-1.3h-2.4l-0.5,1.3c0,0,0,0,0,0.1c0,0,0,0-0.1,0c0,0-0.1,0-0.1,0
			c-0.1,0-0.1,0-0.2,0c-0.1,0-0.2,0-0.2,0c-0.1,0-0.1,0-0.1,0c0,0,0,0,0-0.1c0,0,0-0.1,0-0.1l1.9-5c0,0,0-0.1,0-0.1c0,0,0,0,0.1,0
			c0,0,0.1,0,0.1,0c0.1,0,0.1,0,0.2,0c0.1,0,0.2,0,0.2,0c0.1,0,0.1,0,0.1,0c0,0,0.1,0,0.1,0c0,0,0,0,0,0.1L105,82.2z M102.5,77.8
			L102.5,77.8l-1,2.7h2L102.5,77.8z"/>
	</g>
	<g>
		<path class="st0" d="M56.7,89.2H56v-0.4h4.2v0.4h-0.9v3.1h1.1v0.4h-1.1v4.5h-0.8v-4.5h-0.8v1.6c0.1,0.9-0.7,1.9-2.2,2.9h-0.5
			c1.2-0.8,1.8-1.7,1.8-2.8v-1.8h-1V96h-0.8v-0.5H54v0.8h-0.8v-3.8c-0.2,0.3-0.4,0.6-0.6,0.7h-0.5c0.8-1,1.3-2.4,1.4-4h-1v-0.4h3.1
			v0.4h-1.1c-0.1,0.6-0.2,1.3-0.6,2.1v0.4h0.8v-0.4h0.8v0.9h1V89.2z M54.8,92.2H54V95h0.8V92.2z M57.5,89.2v3.1h0.8v-3.1H57.5z"/>
		<path class="st0" d="M69.1,92.8h-0.9v-4.2h0.9v0.4h3.9v-0.4h0.9v4.2h-0.9v-0.4h-1.5v1.1h3.3v0.4h-2.9c0.6,1.1,1.6,1.8,3,2.1
			c-0.2,0.2-0.3,0.5-0.2,1c-1.6-0.4-2.6-1.5-3-3.2h-0.3v3.5h-0.9v-2.9c-0.4,0.6-1.4,1.3-2.9,2.3c-0.2,0.1-0.3,0.2-0.5,0.4h-0.2
			c1.4-1.1,2.4-2.1,2.9-3.2h-2.7v-0.4h3.4v-1.1h-1.5V92.8z M70.5,90.4v-1.1h-1.5v1.1H70.5z M70.5,92v-1.2h-1.5V92H70.5z M72.9,90.4
			v-1.1h-1.5v1.1H72.9z M72.9,90.8h-1.5V92h1.5V90.8z"/>
		<path class="st0" d="M82.7,91.6v-0.4h6.7v0.4h-2.3c0.2,0.7,0.8,1.3,1.9,1.6c-0.2,0.4-0.2,0.7-0.1,0.9h0c-0.6-0.2-1.1-0.5-1.6-1.1
			c-0.5,0.4-1,0.6-1.5,0.6h0.6v1.2h2.8v0.4h-2.8v1.5H90v0.4h-7.8v-0.4h3.4v-1.5h-2.7v-0.4h2.7v-1.2c-0.8,0.2-1.7,0.3-2.5,0.3
			c0.1-0.3,0.1-0.6-0.1-0.9c0.4,0,0.7,0.1,0.9,0.1c0.6-0.3,0.9-0.9,1-1.6H82.7z M83.4,89.7h2.7c-0.2-0.3-0.4-0.7-0.6-1.2l0,0
			c0.7,0.4,1.1,0.6,1.2,0.7c0,0.1-0.1,0.2-0.3,0.5h2.4v-0.4h1v1.3c-0.2-0.1-0.3-0.1-0.5-0.1C89.2,90.7,89,90.8,89,91h-0.1v-0.9h-5.4
			v0.7h-1v-1.5h1V89.7z M87,91.6h-1.1c-0.2,0.6-0.8,1.2-1.8,1.6c1.3,0.1,2.3,0,3.1-0.3C87.1,92.5,87,92.1,87,91.6z"/>
	</g>
	<g>
		<path class="st0" d="M112.1,36.2c0,0.1,0,0.1,0,0.1c0,0,0,0.1,0,0.1c0,0,0,0-0.1,0.1c0,0,0,0-0.1,0h-2.6c-0.1,0-0.1,0-0.2-0.1
			c-0.1,0-0.1-0.1-0.1-0.2v-4.9c0,0,0,0,0-0.1c0,0,0,0,0.1,0c0,0,0.1,0,0.1,0c0,0,0.1,0,0.2,0c0.1,0,0.1,0,0.2,0c0,0,0.1,0,0.1,0
			c0,0,0.1,0,0.1,0c0,0,0,0,0,0.1v4.6h2.1c0,0,0,0,0.1,0c0,0,0,0,0.1,0.1c0,0,0,0.1,0,0.1C112,36.1,112.1,36.2,112.1,36.2z"/>
		<path class="st0" d="M120.1,36.3c0,0.1,0,0.1,0,0.1c0,0,0,0.1,0,0.1c0,0-0.1,0-0.1,0c-0.1,0-0.1,0-0.2,0c-0.1,0-0.2,0-0.2,0
			c-0.1,0-0.1,0-0.1,0c0,0-0.1,0-0.1,0c0,0,0,0,0-0.1l-0.5-1.3h-2.4l-0.5,1.3c0,0,0,0,0,0.1c0,0,0,0-0.1,0c0,0-0.1,0-0.1,0
			c-0.1,0-0.1,0-0.2,0c-0.1,0-0.2,0-0.2,0c-0.1,0-0.1,0-0.1,0c0,0,0,0,0-0.1c0,0,0-0.1,0-0.1l2-4.9c0,0,0-0.1,0.1-0.1c0,0,0,0,0.1,0
			c0,0,0.1,0,0.1,0c0.1,0,0.1,0,0.2,0c0.1,0,0.2,0,0.2,0c0.1,0,0.1,0,0.2,0c0,0,0.1,0,0.1,0c0,0,0,0,0,0.1L120.1,36.3z M117.6,32
			L117.6,32l-1,2.6h2L117.6,32z"/>
		<path class="st0" d="M127.7,35c0,0.2,0,0.3-0.1,0.5c0,0.1-0.1,0.3-0.2,0.4c-0.1,0.1-0.2,0.2-0.3,0.3c-0.1,0.1-0.3,0.2-0.4,0.2
			c-0.2,0.1-0.3,0.1-0.5,0.1c-0.2,0-0.4,0-0.6,0h-1.5c-0.1,0-0.1,0-0.2-0.1c-0.1,0-0.1-0.1-0.1-0.2v-4.7c0-0.1,0-0.2,0.1-0.2
			c0.1,0,0.1-0.1,0.2-0.1h1.3c0.4,0,0.6,0,0.9,0.1c0.2,0.1,0.4,0.1,0.6,0.3c0.2,0.1,0.3,0.3,0.3,0.4c0.1,0.2,0.1,0.4,0.1,0.6
			c0,0.1,0,0.2-0.1,0.4c0,0.1-0.1,0.2-0.1,0.3c-0.1,0.1-0.1,0.2-0.2,0.3c-0.1,0.1-0.2,0.1-0.3,0.2c0.2,0,0.3,0.1,0.4,0.2
			c0.1,0.1,0.3,0.2,0.4,0.3c0.1,0.1,0.2,0.2,0.2,0.4C127.7,34.7,127.7,34.8,127.7,35z M126.6,32.7c0-0.1,0-0.2-0.1-0.3
			c0-0.1-0.1-0.2-0.2-0.3c-0.1-0.1-0.2-0.1-0.3-0.2c-0.1,0-0.3-0.1-0.5-0.1h-0.8v1.7h0.9c0.2,0,0.4,0,0.5-0.1c0.1,0,0.2-0.1,0.3-0.2
			c0.1-0.1,0.1-0.2,0.2-0.3C126.5,32.9,126.6,32.8,126.6,32.7z M126.9,35.1c0-0.2,0-0.3-0.1-0.4c-0.1-0.1-0.1-0.2-0.2-0.3
			c-0.1-0.1-0.2-0.1-0.4-0.2c-0.2,0-0.4-0.1-0.6-0.1h-0.9V36h1.1c0.2,0,0.3,0,0.5-0.1c0.1,0,0.2-0.1,0.3-0.2
			c0.1-0.1,0.2-0.2,0.2-0.3C126.9,35.3,126.9,35.2,126.9,35.1z"/>
	</g>
	<path class="st0" d="M31.9,38.4L44.4,19c0.8-1.5,0.9-3.1,0.2-4.4c-0.7-1.3-2-2-3.7-2H6.3c-1.7,0-3,0.7-3.7,2
		C2,15.9,2.1,17.5,2.9,19l12.5,19.4c1,1.9,1.9,5.5,1.9,7.7v4.8h-2.5v3.1h17.7v-3.1H30v-4.8C30,43.9,30.8,40.3,31.9,38.4z M18,36.8
		L5.6,17.4c-0.3-0.6-0.3-1-0.3-1.2c0.1-0.2,0.4-0.3,1-0.3h34.6c0.6,0,1,0.2,1,0.3c0.1,0.2,0.1,0.6-0.2,1.2L29.2,36.8
		c-1.3,2.4-2.3,6.5-2.3,9.3v4.8h-6.6v-4.8C20.4,43.3,19.3,39.3,18,36.8z"/>
	<path class="st0" d="M135.8,20.3l1,0.8l2-2.4l-11-8.8l-2,2.4l0.9,0.7l-2.1,2.7c-2.3-0.8-4.7-1.3-7.2-1.3c-6.5,0-12.4,3-16.4,8.1
		c-3.3,4.4-4.7,9.8-4,15.2c0.7,5.4,3.5,10.3,7.9,13.6c3.6,2.7,7.9,4.2,12.4,4.2c6.5,0,12.4-3,16.4-8.1c5.7-7.4,5.4-17.5,0.1-24.7
		L135.8,20.3z M131.3,45.5c-3.3,4.4-8.4,6.9-13.9,6.9c-3.8,0-7.5-1.2-10.5-3.6c-3.7-2.8-6.1-6.9-6.7-11.5c-0.6-4.6,0.6-9.2,3.4-12.9
		c3.3-4.4,8.4-6.9,13.9-6.9c2.8,0,5.5,0.7,7.9,1.9l3.5-4.7l4.7,3.7l-3.4,4.5C135.9,29.1,136.5,38.6,131.3,45.5z"/>
	<path class="st0" d="M89.5,32.1h-3.1c0,0,0,0,0,0H70v3.1h16.4C85.6,44,78.2,51,69.1,51c-9.5,0-17.3-7.8-17.3-17.3
		c0-9.5,7.8-17.3,17.3-17.3c7.6,0,14.1,5,16.4,11.9h3.3c-1.6-6-5.9-10.8-11.5-13.3c2.5-1.1,3.9-2.8,4.8-4.3c1.5-2.6,1.5-5.3,1.5-5.4
		V3.9l-1.4-0.2c-0.7-0.1-1.4-0.1-2.1-0.1c-4.7,0-7.7,2.2-9.4,4.8V2.7h-3.1v10.6c-10.5,0.8-18.9,9.6-18.9,20.3
		c0,11.3,9.2,20.4,20.4,20.4c11.3,0,20.4-9.2,20.4-20.4C89.6,33.1,89.5,32.6,89.5,32.1z M80.1,6.7c0,0,0.1,0,0.1,0
		c-0.2,0.7-0.4,1.5-0.9,2.4c-1.4,2.4-3.8,3.7-7.3,3.8C72.7,10.6,74.6,6.7,80.1,6.7z"/>
</g>
</svg>
